<?xml version="1.0" encoding="utf-8"?>
<!-- Generator: Adobe Illustrator 16.0.0, SVG Export Plug-In . SVG Version: 6.00 Build 0)  -->
<!DOCTYPE svg PUBLIC "-//W3C//DTD SVG 1.1 Basic//EN" "http://www.w3.org/Graphics/SVG/1.1/DTD/svg11-basic.dtd">
<svg version="1.1" baseProfile="basic" id="Layer_1"
	 xmlns="http://www.w3.org/2000/svg" xmlns:xlink="http://www.w3.org/1999/xlink" x="0px" y="0px" width="350px" height="350px"
	 viewBox="0 0 350 350" xml:space="preserve">
<path fill="#E6E6E6" stroke="#E6E6E6" stroke-miterlimit="10" d="M346.634,293.137c0,29.824-26.863,54-60,54H63.368
	c-33.137,0-60-24.176-60-54V166.754c0-29.824,26.863-54.004,60-52.363h223.266c33.137-1.641,60,22.539,60,52.363V293.137z"/>
<rect x="3.368" y="114.312" fill="#E6E6E6" stroke="#E6E6E6" stroke-miterlimit="10" width="343.266" height="57"/>
<rect x="3.368" y="49.488" fill="#0000FF" stroke="#0000FF" stroke-miterlimit="10" width="343.266" height="64.918"/>
<path fill="#0000FF" stroke="#0000FF" stroke-miterlimit="10" d="M346.642,48.195c0-9.203-7.461-16.664-16.672-16.664H20.032
	c-9.203,0-16.664,7.461-16.664,16.664l0,0c0,9.207,7.461,16.668,16.664,16.668H329.97C339.181,64.863,346.642,57.402,346.642,48.195
	L346.642,48.195z"/>
<path fill="#E6E6E6" stroke="#E6E6E6" stroke-miterlimit="10" d="M346.634,317.254c0,16.504-13.375,29.883-29.883,29.883H33.255
	c-16.508,0-29.887-13.379-29.887-29.883l0,0c0-16.508,13.379-29.887,29.887-29.887h283.496
	C333.259,287.367,346.634,300.746,346.634,317.254L346.634,317.254z"/>
<rect x="3.368" y="276.531" fill="#E6E6E6" stroke="#E6E6E6" stroke-miterlimit="10" width="342.977" height="44.75"/>
<path fill="#E6E6E6" d="M102.056,38.82c0,5.18-4.195,9.375-9.375,9.375l0,0c-5.18,0-9.375-4.195-9.375-9.375V12.156
	c0-5.18,4.195-9.375,9.375-9.375l0,0c5.18,0,9.375,4.195,9.375,9.375V38.82z"/>
<path fill="#E6E6E6" d="M259.556,38.402c0,5.18-4.199,9.375-9.375,9.375l0,0c-5.176,0-9.375-4.195-9.375-9.375V11.738
	c0-5.176,4.199-9.375,9.375-9.375l0,0c5.176,0,9.375,4.199,9.375,9.375V38.402z"/>
<rect x="3.368" y="95.281" fill="#0000FF" stroke="#0000FF" stroke-miterlimit="10" width="343.266" height="42.5"/>
</svg>
